<?xml version="1.0" standalone="no"?>
<!DOCTYPE svg PUBLIC "-//W3C//DTD SVG 20010904//EN"
 "http://www.w3.org/TR/2001/REC-SVG-20010904/DTD/svg10.dtd">
<svg version="1.0" xmlns="http://www.w3.org/2000/svg"
 width="512.000000pt" height="512.000000pt" viewBox="0 0 512.000000 512.000000"
 preserveAspectRatio="xMidYMid meet">
<metadata>
Created by potrace 1.11, written by Peter Selinger 2001-2013
</metadata>
<g transform="translate(0.000000,512.000000) scale(0.100000,-0.100000)"
fill="#000000" stroke="none">
<path d="M2379 5106 c-2 -2 -35 -6 -74 -10 -156 -14 -398 -67 -550 -119 -161
-56 -367 -151 -483 -224 -29 -18 -55 -33 -58 -33 -10 0 -250 -177 -299 -221
-225 -199 -393 -399 -534 -632 -58 -97 -181 -347 -181 -369 0 -8 -4 -18 -9
-23 -21 -23 -111 -338 -135 -475 -3 -19 -8 -44 -10 -55 -4 -18 -9 -64 -21
-185 -8 -74 -8 -319 -1 -400 6 -72 8 -89 21 -190 12 -89 48 -247 82 -360 215
-713 738 -1303 1423 -1603 200 -88 412 -150 640 -186 107 -17 166 -19 415 -17
160 2 304 6 320 9 17 4 59 12 95 18 499 85 974 329 1339 688 65 64 143 145
172 181 30 36 57 67 60 70 3 3 32 44 66 91 190 269 319 545 398 854 57 222 66
309 64 653 0 253 -4 326 -19 412 -107 596 -380 1083 -840 1500 -58 53 -250
194 -337 249 -91 56 -315 171 -384 196 -253 92 -439 140 -659 170 -52 7 -494
17 -501 11z m471 -406 c939 -130 1680 -829 1854 -1746 26 -141 30 -194 31
-399 0 -220 -5 -273 -40 -446 -82 -406 -288 -783 -591 -1086 -232 -231 -498
-402 -789 -506 -110 -40 -265 -82 -335 -92 -24 -4 -47 -8 -50 -10 -4 -3 -35
-7 -160 -21 -60 -6 -352 -6 -405 1 -44 6 -96 13 -210 32 -88 14 -271 69 -405
123 -206 82 -458 244 -649 418 l-63 59 50 39 c60 47 99 77 307 236 250 192
643 492 792 607 l135 104 232 -232 233 -233 52 59 c58 64 113 141 156 218 26
46 73 160 80 195 30 133 33 163 30 289 -1 75 -6 150 -9 166 -6 29 -1 34 186
175 329 249 502 380 523 398 12 9 74 58 140 107 138 104 162 128 171 172 13
66 -3 85 -359 440 -303 302 -346 342 -381 349 -55 10 -89 -12 -158 -99 -32
-39 -88 -111 -125 -158 -83 -105 -69 -87 -363 -461 l-241 -307 -47 7 c-79 11
-273 7 -347 -8 -81 -16 -75 -15 -95 -22 -8 -3 -37 -14 -65 -24 -101 -36 -231
-118 -333 -209 l-54 -48 232 -232 232 -233 -143 -188 c-79 -103 -184 -240
-232 -303 -160 -210 -225 -295 -315 -411 -48 -63 -134 -175 -189 -248 l-102
-132 -23 23 c-284 292 -495 705 -562 1107 -27 158 -30 195 -31 365 0 227 8
309 50 495 144 643 601 1207 1210 1490 165 77 435 157 600 176 22 3 69 8 105
12 93 11 370 6 470 -8z"/>
</g>
</svg>
